<?xml version="1.0" standalone="no"?>
<!DOCTYPE svg PUBLIC "-//W3C//DTD SVG 20010904//EN"
 "http://www.w3.org/TR/2001/REC-SVG-20010904/DTD/svg10.dtd">
<svg version="1.0" xmlns="http://www.w3.org/2000/svg"
 width="1920.000000pt" height="2062.000000pt" viewBox="0 0 1920.000000 2062.000000"
 preserveAspectRatio="xMidYMid meet">

<g transform="translate(0.000000,2062.000000) scale(0.100000,-0.100000)"
fill="#000000" stroke="none">
<path d="M9705 18969 c-156 -20 -345 -93 -511 -198 -235 -147 -519 -433 -712
-715 l-54 -79 -56 9 c-93 15 -269 9 -342 -10 -234 -63 -420 -239 -503 -475
-42 -121 -49 -279 -18 -402 34 -135 91 -239 182 -334 44 -45 79 -87 79 -94 0
-6 -25 -82 -56 -169 -66 -185 -107 -309 -163 -488 -23 -73 -47 -136 -54 -142
-6 -6 -36 -20 -65 -31 -121 -48 -504 -247 -672 -350 -75 -45 -304 -198 -390
-259 l-45 -32 -135 30 c-74 16 -157 34 -185 40 -27 6 -68 15 -90 20 -223 49
-616 112 -820 132 -55 5 -143 14 -195 19 -155 16 -830 23 -950 9 -317 -34
-536 -80 -745 -157 -119 -43 -306 -141 -396 -206 -109 -78 -126 -94 -224 -198
-156 -166 -260 -382 -301 -624 -39 -234 -14 -529 72 -828 93 -325 263 -675
527 -1087 102 -160 360 -512 472 -645 28 -33 86 -103 130 -155 98 -118 209
-243 296 -335 37 -38 79 -85 94 -103 l27 -32 -11 -123 c-7 -67 -16 -156 -22
-198 -13 -99 -12 -721 0 -802 11 -65 31 -266 31 -304 0 -14 -49 -74 -138 -170
-464 -502 -895 -1087 -1148 -1558 -136 -253 -279 -613 -314 -790 -7 -33 -19
-87 -27 -120 -21 -81 -30 -503 -13 -589 53 -263 146 -455 304 -631 59 -66 223
-205 242 -205 4 0 21 -10 38 -23 76 -57 261 -145 406 -193 111 -37 346 -93
430 -104 41 -5 129 -16 195 -24 66 -9 170 -16 230 -16 61 0 115 -4 121 -8 7
-4 27 -38 46 -77 53 -109 86 -155 160 -227 84 -81 177 -138 280 -172 68 -23
93 -26 220 -26 169 0 216 10 348 77 197 98 327 277 384 526 8 32 29 42 136 62
41 8 98 19 125 25 28 6 73 15 100 20 28 4 99 20 160 34 131 31 156 32 180 6
45 -50 389 -269 585 -372 30 -16 59 -33 65 -38 22 -18 354 -179 403 -195 79
-26 82 -32 162 -295 17 -58 43 -136 57 -175 13 -38 34 -99 45 -135 11 -36 33
-99 49 -140 15 -41 51 -135 79 -209 107 -280 298 -686 437 -929 87 -153 193
-315 284 -437 41 -54 89 -118 107 -142 53 -71 249 -270 347 -351 151 -127 381
-264 510 -304 308 -97 582 -88 875 28 308 122 613 379 888 745 149 200 236
339 387 621 58 108 105 199 105 201 0 3 20 47 44 98 166 354 289 680 476 1268
48 151 58 165 153 208 132 60 271 133 512 268 103 58 337 213 430 285 90 69
74 68 280 17 255 -64 601 -128 960 -177 44 -6 109 -16 144 -21 71 -11 301 -28
523 -37 275 -13 705 9 873 43 44 10 100 21 125 26 559 112 947 353 1155 719
134 234 195 588 150 865 -9 50 -19 115 -24 145 -27 163 -105 406 -204 630 -63
143 -64 134 25 235 55 64 89 133 119 241 31 110 31 278 -1 384 -77 259 -280
454 -537 515 -99 24 -300 16 -392 -14 -77 -26 -63 -35 -204 134 -54 66 -122
145 -151 176 -273 296 -352 383 -358 393 -4 7 -2 82 4 167 19 277 20 617 3
842 -13 171 -13 212 -3 225 7 10 71 80 143 157 184 199 332 366 415 470 39 50
97 122 129 160 32 39 75 95 97 125 21 30 61 84 89 119 80 102 306 447 387 591
65 115 208 392 208 404 0 3 13 34 29 68 24 53 52 129 101 268 23 66 75 272 88
350 6 36 16 119 22 185 18 195 -16 452 -81 617 -139 353 -435 622 -854 776
-115 42 -271 86 -365 103 -190 34 -237 41 -345 51 -262 25 -934 13 -1182 -21
-37 -5 -113 -14 -168 -21 -55 -6 -120 -15 -145 -20 -25 -5 -92 -16 -150 -25
-151 -23 -282 -49 -565 -112 -282 -62 -255 -63 -365 18 -99 73 -401 269 -414
269 -3 0 -44 24 -93 54 -74 45 -197 110 -328 174 -16 8 -67 33 -113 55 l-82
42 -36 115 c-99 323 -178 551 -294 850 -222 573 -539 1142 -822 1473 -144 168
-384 397 -459 438 -12 6 -41 26 -64 44 -57 43 -228 126 -340 165 -152 53 -397
73 -590 49z m450 -340 c406 -124 777 -490 1137 -1119 109 -191 279 -546 358
-750 12 -30 28 -68 35 -85 16 -34 139 -367 150 -405 4 -14 13 -38 20 -55 18
-43 46 -134 55 -177 6 -32 4 -38 -12 -44 -10 -3 -24 -1 -31 4 -7 5 -37 17 -67
27 -30 10 -96 33 -147 52 -51 18 -99 33 -107 33 -8 0 -25 4 -38 9 -30 12 -79
24 -218 57 -63 14 -123 30 -132 35 -10 5 -31 9 -47 9 -16 0 -56 7 -88 15 -131
33 -238 49 -483 74 -52 5 -136 14 -185 20 -50 6 -133 11 -185 11 -52 0 -144 4
-205 8 -60 4 -171 4 -245 0 -74 -4 -193 -10 -265 -13 -71 -3 -159 -9 -195 -15
-36 -5 -92 -12 -125 -15 -268 -23 -667 -103 -940 -188 -327 -102 -295 -96
-288 -50 6 41 25 102 97 307 67 190 46 174 233 179 171 4 194 8 296 55 222
103 370 299 407 541 35 229 -27 445 -175 608 -56 62 -56 62 -42 95 8 18 36 58
63 89 27 31 96 111 152 178 57 67 151 163 208 213 101 88 249 198 267 198 5 0
22 9 39 21 37 27 139 64 243 89 108 26 123 27 250 23 87 -3 131 -10 210 -34z
m-1750 -965 c122 -57 183 -124 230 -249 58 -154 19 -327 -103 -457 -61 -65
-131 -102 -231 -124 -72 -15 -92 -16 -145 -5 -176 35 -290 137 -365 324 -18
45 -14 186 8 250 21 66 80 155 135 204 114 103 321 129 471 57z m-3615 -2534
c180 -13 433 -44 650 -80 30 -5 84 -14 120 -19 36 -6 109 -19 164 -31 54 -11
113 -20 130 -20 39 0 126 -28 126 -41 0 -13 -84 -94 -170 -164 -162 -133 -507
-503 -675 -725 -26 -36 -70 -93 -96 -126 -49 -64 -211 -304 -313 -465 -145
-230 -345 -634 -451 -914 -21 -55 -43 -113 -50 -130 -48 -113 -137 -412 -200
-665 -8 -36 -20 -81 -25 -101 -6 -20 -10 -50 -10 -67 0 -39 -16 -82 -31 -82
-6 0 -21 12 -34 28 -13 15 -65 76 -117 136 -615 719 -998 1344 -1151 1881 -53
186 -70 298 -71 480 0 156 2 178 27 268 79 284 271 503 567 647 76 37 222 91
295 109 22 5 58 15 80 21 254 67 762 92 1235 60z m11095 -25 c204 -27 252 -34
341 -55 278 -62 487 -153 667 -287 82 -62 189 -190 244 -295 117 -218 137
-534 56 -863 -136 -553 -546 -1240 -1162 -1950 -202 -232 -233 -266 -244 -262
-17 5 -35 67 -36 119 -1 43 -49 248 -101 428 -11 41 -29 107 -39 145 -28 108
-98 310 -143 412 -10 24 -18 47 -18 53 0 5 -7 24 -15 42 -8 18 -28 67 -45 108
-143 341 -368 750 -578 1048 -83 118 -204 279 -318 422 -59 76 -234 268 -379
419 -90 93 -163 158 -274 244 -43 33 -57 65 -38 84 7 7 67 22 132 34 66 11
140 24 165 29 85 17 225 41 295 51 39 5 97 14 130 18 124 18 393 50 485 59
166 16 751 14 875 -3z m-5665 -3024 c209 -45 470 -147 573 -225 18 -13 49 -33
69 -45 38 -21 108 -75 212 -165 54 -47 100 -98 196 -216 35 -44 114 -162 127
-190 3 -8 14 -26 23 -40 23 -35 103 -221 128 -300 36 -115 61 -232 78 -373 14
-120 15 -157 5 -275 -14 -153 -38 -317 -50 -341 -5 -9 -14 -41 -21 -71 -7 -30
-17 -62 -21 -70 -4 -8 -24 -57 -44 -109 -65 -168 -168 -331 -317 -499 -51 -57
-115 -122 -142 -145 -28 -22 -55 -46 -61 -52 -40 -45 -278 -185 -423 -249
-109 -47 -145 -76 -177 -139 -40 -81 -36 -111 40 -312 14 -38 31 -83 36 -100
6 -16 17 -41 24 -55 8 -14 20 -44 28 -65 74 -207 148 -395 158 -401 16 -9 9
-59 -9 -70 -10 -6 -94 -51 -187 -99 -338 -174 -512 -264 -541 -279 -33 -18
-284 -136 -289 -136 -2 0 -67 -31 -146 -69 -190 -91 -738 -337 -766 -344 -20
-4 -23 -1 -23 26 0 18 14 66 31 107 45 107 43 101 105 255 31 77 67 172 81
210 13 39 32 88 42 110 10 22 30 72 44 110 14 39 46 124 72 190 26 66 50 131
54 145 5 14 17 45 29 70 11 25 43 108 72 185 28 77 58 155 67 174 8 18 19 45
23 60 5 14 18 52 29 83 38 105 21 208 -45 270 -16 14 -81 50 -144 79 -145 66
-233 113 -289 153 -24 17 -60 42 -81 56 -110 74 -335 315 -396 425 -6 11 -40
70 -76 130 -57 98 -147 306 -161 375 -3 14 -11 43 -17 65 -48 166 -61 565 -24
750 28 145 98 350 155 456 49 92 39 75 120 204 50 79 173 220 274 315 39 36
72 68 75 71 11 14 100 77 175 125 175 111 285 158 520 220 l160 42 260 -2
c226 -2 274 -6 365 -25z m5619 -2799 c90 -94 381 -441 381 -453 0 -4 -22 -43
-48 -86 -60 -97 -77 -137 -102 -237 -66 -263 45 -578 262 -741 74 -56 203
-118 278 -135 48 -11 261 -10 375 2 26 3 32 -2 52 -40 42 -80 150 -386 181
-512 53 -222 64 -370 38 -550 -25 -167 -79 -302 -173 -427 -187 -249 -527
-420 -970 -489 -257 -39 -369 -46 -713 -40 -418 7 -661 27 -945 76 -27 5 -84
14 -125 20 -41 6 -103 18 -137 26 -34 8 -74 14 -88 14 -14 0 -58 9 -98 19 -39
11 -99 23 -132 26 -99 12 -114 47 -40 94 24 15 57 41 72 57 16 16 53 52 83 79
94 87 352 356 426 445 64 77 256 319 302 380 33 44 187 273 215 320 15 25 32
52 37 60 58 93 116 191 131 224 10 23 32 64 48 91 85 140 235 468 321 700 12
33 28 74 35 90 18 43 93 285 150 485 51 177 95 379 95 436 0 42 25 104 41 104
7 0 28 -17 48 -38z m-11856 -105 c3 -12 11 -56 17 -97 7 -41 18 -102 27 -135
28 -116 51 -204 61 -237 53 -173 99 -316 123 -379 16 -42 29 -80 29 -85 1 -5
9 -27 20 -49 11 -22 19 -43 20 -48 0 -12 150 -364 169 -398 5 -9 43 -81 84
-160 113 -218 208 -380 343 -583 106 -158 102 -153 159 -226 28 -35 57 -74 65
-86 38 -56 148 -194 194 -244 28 -31 94 -103 146 -160 136 -150 332 -344 427
-424 46 -38 89 -79 98 -92 14 -21 13 -24 -19 -43 -20 -13 -50 -21 -76 -21 -23
0 -79 -8 -124 -17 -45 -9 -89 -14 -96 -11 -8 3 -34 44 -58 92 -30 58 -66 110
-114 161 -133 143 -267 212 -456 236 -242 31 -478 -62 -640 -253 -58 -68 -133
-213 -151 -293 -19 -81 -16 -79 -137 -76 -60 1 -111 4 -115 7 -4 2 -53 9 -110
14 -181 19 -251 31 -429 78 -83 21 -300 109 -370 150 -210 121 -384 321 -457
526 -42 121 -60 316 -44 496 28 325 197 764 456 1185 33 55 68 111 76 125 8
14 21 34 30 45 9 11 45 63 80 115 34 52 81 120 104 150 209 277 282 369 398
505 56 66 127 150 157 187 30 36 62 68 70 70 24 7 38 -2 43 -25z m12926 -411
c132 -45 241 -145 284 -261 36 -98 41 -134 27 -219 -21 -138 -92 -246 -212
-324 -55 -36 -75 -43 -156 -53 -75 -10 -105 -10 -155 0 -134 27 -252 123 -316
257 -32 65 -34 75 -34 179 0 107 1 112 38 184 106 211 318 307 524 237z
m-6041 -1671 c35 -93 72 -195 84 -225 11 -30 24 -64 29 -75 5 -11 29 -81 54
-155 25 -74 50 -144 55 -155 4 -11 16 -40 25 -65 9 -25 29 -72 45 -105 16 -33
48 -109 70 -170 23 -60 66 -171 96 -246 30 -74 54 -142 54 -150 0 -8 4 -19 9
-24 5 -6 24 -50 42 -100 57 -159 65 -180 75 -200 6 -11 23 -56 39 -100 15 -44
36 -100 47 -125 11 -25 28 -70 38 -100 10 -30 32 -91 50 -134 61 -155 101
-201 199 -232 50 -17 52 -18 45 -48 -17 -83 -195 -594 -254 -731 -5 -11 -37
-85 -71 -165 -241 -566 -494 -987 -777 -1295 -155 -169 -317 -297 -477 -378
-133 -67 -163 -79 -235 -93 -36 -7 -85 -18 -110 -24 -61 -16 -196 -7 -292 20
-43 12 -82 19 -87 15 -5 -3 -12 -1 -15 4 -4 5 -57 34 -119 65 -150 74 -162 81
-258 161 -291 241 -516 534 -782 1016 -13 25 -30 54 -36 65 -6 10 -47 94 -91
187 -131 275 -285 668 -400 1018 -60 183 -60 168 5 223 38 33 63 66 81 104 25
55 77 189 94 242 4 14 19 51 34 83 14 32 26 61 26 64 0 8 79 217 110 293 26
64 92 236 140 365 83 226 111 284 144 304 17 11 85 40 151 66 121 48 382 161
400 174 6 4 33 16 60 26 50 18 405 174 441 193 19 11 222 106 304 143 115 52
377 182 390 194 8 7 85 48 170 93 85 44 184 96 220 115 106 58 104 60 178
-138z m-5839 -1216 c171 -53 300 -173 337 -315 88 -341 -236 -653 -561 -539
-122 43 -203 113 -258 221 -38 76 -47 114 -47 202 0 86 22 163 65 232 27 43
107 119 163 154 75 47 223 69 301 45z"/>
</g>
</svg>
